<?xml version="1.0" encoding="utf-8"?>
<!-- Generator: Adobe Illustrator 27.0.0, SVG Export Plug-In . SVG Version: 6.00 Build 0)  -->
<svg version="1.1" id="Capa_1" xmlns="http://www.w3.org/2000/svg" xmlns:xlink="http://www.w3.org/1999/xlink" x="0px" y="0px"
	 viewBox="0 0 1080 1080" style="enable-background:new 0 0 1080 1080;" xml:space="preserve">
<style type="text/css">
	.st0{fill:#79CCD2;}
</style>
<g>
	<g>
		<g>
			<path d="M507.94,703.06v137.19h-18.39V703.02h-22.97v-15.65h63.97v15.63L507.94,703.06z"/>
			<path d="M763.96,703.05v137.17h-18.39V703.02h-22.97v-15.65h63.97v15.62L763.96,703.05z"/>
			<path d="M621.01,840.23h-17.73l-6.06-32.85l-33.61-0.12l-4.47,32.97h-16.07L572,687.37l17.03,0.2L621.01,840.23 M581.17,721.03
				h-0.62l-14.11,72.41h28.21L581.17,721.03z"/>
			<path d="M809.57,840.25V687.37h53.41v17.9h-34.03v45.58h31.51v18.46h-31.51v53.15h35.72v17.79H809.57z"/>
			<path d="M252.65,721.65l15.87-6.07c0,0-2.5-12.11-13.09-21.22c-5.26-4.53-12.05-6.91-18.99-6.91h-7.24
				c-5.68,0-11.26,1.52-16.12,4.46c-6.96,4.22-15.29,11.99-17.37,25.53c-3.73,24.25-2.33,82.58-2.33,82.6
				c0,0,1.14,41.61,37.44,39.48c36.3-2.14,37.85-30.76,37.7-40.41c-0.14-8.92,0.15-38.27,0.15-38.27h-35.62v15.4h17.73v29.4
				c0,0-0.47,18.2-14,21.47c-13.53,3.27-21-4.67-21.93-16.8c-0.93-12.13,0-85.4,0-85.4s-0.92-23.99,17.7-24.86
				C245.6,699.45,250.32,710.45,252.65,721.65z"/>
			<path d="M366.36,699.94l0.01-12.58h-19.23v7.29c-0.03,33.88,0.09,73.37-0.11,107.25c0,0,0.91,21.8-9.22,21.91
				c-4.06,0.05-8.42,0.61-12.27-0.51c-2.38-0.69-5.2-3.64-5.83-6.12c-1.46-5.71-2.3-11.75-2.34-17.66
				c-0.23-32.85-0.09-65.7-0.19-98.55v-13.6h-19.6v6.67c0.14,24.64,0.04,49.28,0.08,73.92c0.02,13.69-0.03,27.38,0.3,41.06
				c0.29,11.95,5.24,21.41,15.6,27.35c6.96,3.99,14.66,3.68,22.34,3.88c18.57,0.48,29.81-13.65,30.08-30.45L366.36,699.94z"/>
			<path d="M402.15,838.45c0.32,0.1,0.64,0.21,0.96,0.29c31.91,7.62,51.19-14.57,47.2-42.91c-1.73-12.27-8.7-21.56-15.59-31.01
				c-7.39-10.13-15.2-19.97-22.45-30.19c-4.41-6.21-4.32-20.41,1.85-26.22c7.82-7.36,15.93-6.56,24.76-3.99l5.87,2.91l-0.25-16.92
				c-2.14-1.28-8.07-2.38-12.67-3.07c-5.31-0.8-10.73-0.71-15.95,0.53c-4.1,0.97-7.95,2.59-11.52,5.32
				c-10.94,8.36-13.93,19.87-13.76,32.94c0.19,14.25,7.74,24.98,16.01,35.47c6.43,8.16,13,16.22,19.24,24.52
				c4.52,6.02,7.53,12.65,6.39,20.56c-1.1,7.61-7.06,18.06-16.84,17.66c-5.36-0.22-10.68-1.79-15.98-2.92l-5.36-2.44l-0.2,16.24
				L402.15,838.45z"/>
			<path d="M681.6,764.9c27.45-3.63,24.01-43.92,24.01-43.92c0.19-19.17-12.61-34.88-31.8-33.53l-28.2-0.08v7.14
				c0.16,44.89,0.05,89.78,0.11,134.66l-0.11,11.06h19.64l0.13-5.38c-0.04-18.76-0.07-37.52-0.03-56.28l-0.02-11.98h2.02
				l23.05,73.63h19.28L681.6,764.9z M665.26,755.15v-52.69c0,0,22.63-4.53,23.47,23.54C688.73,726,691.87,757.31,665.26,755.15z"/>
		</g>
	</g>
	<path d="M893.57,863.13h-715.8c-1.15,0-2.09-0.94-2.09-2.09c0-1.15,0.94-2.09,2.09-2.09h715.8c1.15,0,2.09,0.94,2.09,2.09
		C895.66,862.19,894.72,863.13,893.57,863.13z"/>
	<path d="M893.57,956.3h-715.8c-1.15,0-2.09-0.94-2.09-2.09c0-1.15,0.94-2.09,2.09-2.09h715.8c1.15,0,2.09,0.94,2.09,2.09
		C895.66,955.37,894.72,956.3,893.57,956.3z"/>
	<g>
		<path d="M241.21,915.51l6.35,1.66c-1.33,5.4-3.72,9.51-7.18,12.35c-3.46,2.83-7.68,4.25-12.67,4.25c-5.17,0-9.37-1.09-12.61-3.27
			c-3.24-2.18-5.7-5.34-7.39-9.47c-1.69-4.13-2.53-8.57-2.53-13.31c0-5.17,0.95-9.68,2.86-13.53c1.91-3.85,4.62-6.78,8.14-8.77
			c3.52-2,7.4-3,11.63-3c4.8,0,8.83,1.27,12.1,3.79c3.27,2.53,5.55,6.09,6.84,10.67l-6.25,1.52c-1.11-3.61-2.73-6.24-4.84-7.89
			c-2.12-1.65-4.78-2.47-7.98-2.47c-3.69,0-6.77,0.91-9.24,2.74c-2.48,1.83-4.21,4.29-5.22,7.37c-1,3.08-1.5,6.26-1.5,9.54
			c0,4.22,0.59,7.91,1.78,11.06c1.19,3.15,3.04,5.51,5.54,7.06c2.51,1.56,5.22,2.34,8.14,2.34c3.55,0,6.56-1.06,9.03-3.18
			C238.67,922.84,240.34,919.69,241.21,915.51z"/>
		<path d="M255.5,932.93v-49.67h34.67v5.86h-28.33v15.21h26.53v5.83h-26.53v16.91h29.44v5.86H255.5z"/>
		<path d="M299.99,932.93v-49.67h6.51l25.19,38.99v-38.99h6.08v49.67h-6.51l-25.19-39.03v39.03H299.99z"/>
		<path d="M360.63,932.93v-43.8h-15.8v-5.86h38.01v5.86h-15.86v43.8H360.63z"/>
		<path d="M389.44,932.93v-49.67h21.26c4.27,0,7.52,0.45,9.75,1.34c2.22,0.89,4,2.47,5.33,4.73c1.33,2.26,2,4.75,2,7.49
			c0,3.52-1.1,6.49-3.3,8.91c-2.2,2.42-5.6,3.95-10.2,4.61c1.68,0.84,2.95,1.66,3.83,2.47c1.85,1.76,3.61,3.96,5.27,6.61l8.34,13.52
			h-7.98l-6.35-10.33c-1.85-2.98-3.38-5.26-4.58-6.84c-1.2-1.58-2.27-2.69-3.22-3.32c-0.95-0.63-1.91-1.07-2.89-1.32
			c-0.72-0.16-1.9-0.24-3.53-0.24h-7.36v22.06H389.44z M395.79,905.18h13.64c2.9,0,5.17-0.31,6.8-0.93
			c1.64-0.62,2.88-1.61,3.73-2.98c0.85-1.37,1.28-2.85,1.28-4.45c0-2.35-0.82-4.28-2.47-5.79c-1.65-1.51-4.25-2.27-7.8-2.27h-15.18
			V905.18z"/>
		<path d="M435.79,908.74c0-8.24,2.14-14.7,6.41-19.36c4.27-4.66,9.79-7,16.55-7c4.43,0,8.42,1.1,11.97,3.29
			c3.55,2.19,6.26,5.25,8.13,9.16c1.86,3.92,2.8,8.36,2.8,13.33c0,5.04-0.98,9.54-2.94,13.52c-1.96,3.98-4.74,6.98-8.34,9.03
			c-3.6,2.04-7.48,3.07-11.64,3.07c-4.51,0-8.55-1.13-12.1-3.39c-3.55-2.26-6.25-5.34-8.08-9.25
			C436.71,917.23,435.79,913.1,435.79,908.74z M442.33,908.84c0,5.99,1.55,10.7,4.66,14.14c3.11,3.44,7,5.17,11.69,5.17
			c4.78,0,8.71-1.74,11.79-5.22c3.09-3.48,4.63-8.41,4.63-14.8c0-4.04-0.66-7.57-1.98-10.59c-1.32-3.01-3.25-5.35-5.79-7.01
			c-2.54-1.66-5.39-2.49-8.55-2.49c-4.49,0-8.36,1.6-11.6,4.79C443.95,896.03,442.33,901.36,442.33,908.84z"/>
		<path d="M499.47,932.93l18.41-49.67h6.84l19.62,49.67h-7.23l-5.59-15.04h-20.05l-5.27,15.04H499.47z M513.31,912.53h16.26
			l-5-13.75c-1.53-4.18-2.66-7.61-3.4-10.3c-0.61,3.18-1.47,6.35-2.58,9.49L513.31,912.53z"/>
		<path d="M549.52,932.93v-49.67h21.26c4.27,0,7.52,0.45,9.75,1.34c2.22,0.89,4,2.47,5.33,4.73c1.33,2.26,1.99,4.75,1.99,7.49
			c0,3.52-1.1,6.49-3.3,8.91c-2.2,2.42-5.6,3.95-10.21,4.61c1.68,0.84,2.95,1.66,3.83,2.47c1.85,1.76,3.61,3.96,5.27,6.61
			l8.34,13.52h-7.98l-6.35-10.33c-1.85-2.98-3.38-5.26-4.58-6.84c-1.2-1.58-2.27-2.69-3.22-3.32c-0.95-0.63-1.91-1.07-2.89-1.32
			c-0.72-0.16-1.9-0.24-3.53-0.24h-7.36v22.06H549.52z M555.86,905.18h13.64c2.9,0,5.17-0.31,6.8-0.93
			c1.64-0.62,2.88-1.61,3.73-2.98c0.85-1.37,1.28-2.85,1.28-4.45c0-2.35-0.82-4.28-2.47-5.79c-1.65-1.51-4.25-2.27-7.8-2.27h-15.18
			V905.18z"/>
		<path d="M608.79,932.93v-43.8h-15.8v-5.86h38.01v5.86h-15.86v43.8H608.79z"/>
		<path d="M636.95,880.21l4.35-9.49h7.72l-7.2,9.49H636.95z M638.58,932.93v-49.67h6.35v49.67H638.58z"/>
		<path d="M653.96,916.97l5.99-0.54c0.28,2.48,0.94,4.52,1.98,6.12c1.03,1.59,2.64,2.88,4.82,3.86c2.18,0.98,4.63,1.47,7.36,1.47
			c2.42,0,4.56-0.37,6.41-1.12c1.85-0.75,3.23-1.77,4.14-3.07c0.9-1.3,1.36-2.72,1.36-4.25c0-1.56-0.44-2.92-1.31-4.08
			c-0.87-1.16-2.31-2.14-4.32-2.93c-1.29-0.52-4.13-1.33-8.54-2.42c-4.4-1.1-7.49-2.13-9.26-3.1c-2.29-1.24-4-2.78-5.12-4.62
			c-1.12-1.84-1.68-3.9-1.68-6.18c0-2.51,0.69-4.85,2.06-7.03c1.37-2.18,3.38-3.83,6.02-4.96c2.64-1.13,5.57-1.69,8.8-1.69
			c3.55,0,6.69,0.59,9.4,1.78c2.71,1.19,4.8,2.93,6.26,5.23c1.46,2.3,2.25,4.91,2.35,7.83l-6.08,0.47
			c-0.33-3.14-1.43-5.51-3.32-7.11s-4.67-2.41-8.36-2.41c-3.84,0-6.64,0.73-8.39,2.18c-1.76,1.46-2.63,3.21-2.63,5.27
			c0,1.78,0.62,3.25,1.86,4.4c1.22,1.15,4.41,2.33,9.57,3.54c5.16,1.21,8.7,2.26,10.61,3.17c2.79,1.33,4.85,3.02,6.18,5.06
			c1.33,2.04,1.99,4.4,1.99,7.06c0,2.64-0.73,5.13-2.19,7.47c-1.46,2.34-3.56,4.16-6.3,5.45c-2.74,1.3-5.82,1.95-9.24,1.95
			c-4.34,0-7.98-0.66-10.91-1.96c-2.93-1.31-5.23-3.28-6.9-5.91C654.92,923.27,654.04,920.29,653.96,916.97z"/>
		<path d="M712.99,932.93v-43.8h-15.8v-5.86h38.01v5.86h-15.86v43.8H712.99z"/>
		<path d="M742.79,932.93v-49.67h6.35v49.67H742.79z"/>
		<path d="M794.54,915.51l6.35,1.66c-1.33,5.4-3.72,9.51-7.18,12.35c-3.46,2.83-7.68,4.25-12.67,4.25c-5.17,0-9.37-1.09-12.61-3.27
			c-3.24-2.18-5.7-5.34-7.39-9.47c-1.69-4.13-2.54-8.57-2.54-13.31c0-5.17,0.95-9.68,2.86-13.53c1.91-3.85,4.62-6.78,8.14-8.77
			c3.52-2,7.4-3,11.63-3c4.8,0,8.83,1.27,12.1,3.79c3.27,2.53,5.55,6.09,6.84,10.67l-6.25,1.52c-1.11-3.61-2.73-6.24-4.84-7.89
			c-2.12-1.65-4.78-2.47-7.98-2.47c-3.69,0-6.77,0.91-9.24,2.74c-2.48,1.83-4.21,4.29-5.22,7.37c-1,3.08-1.51,6.26-1.51,9.54
			c0,4.22,0.59,7.91,1.78,11.06c1.19,3.15,3.04,5.51,5.54,7.06c2.51,1.56,5.22,2.34,8.15,2.34c3.55,0,6.56-1.06,9.03-3.18
			C792,922.84,793.67,919.69,794.54,915.51z"/>
		<path d="M806.77,908.74c0-8.24,2.14-14.7,6.41-19.36c4.27-4.66,9.79-7,16.55-7c4.43,0,8.42,1.1,11.97,3.29
			c3.55,2.19,6.26,5.25,8.13,9.16c1.86,3.92,2.8,8.36,2.8,13.33c0,5.04-0.98,9.54-2.94,13.52c-1.96,3.98-4.74,6.98-8.34,9.03
			c-3.6,2.04-7.48,3.07-11.64,3.07c-4.51,0-8.55-1.13-12.1-3.39c-3.56-2.26-6.25-5.34-8.08-9.25
			C807.69,917.23,806.77,913.1,806.77,908.74z M813.31,908.84c0,5.99,1.55,10.7,4.66,14.14c3.11,3.44,7,5.17,11.69,5.17
			c4.78,0,8.71-1.74,11.79-5.22c3.09-3.48,4.63-8.41,4.63-14.8c0-4.04-0.66-7.57-1.98-10.59c-1.32-3.01-3.25-5.35-5.79-7.01
			c-2.54-1.66-5.39-2.49-8.55-2.49c-4.49,0-8.36,1.6-11.6,4.79C814.93,896.03,813.31,901.36,813.31,908.84z"/>
	</g>
	<g>
		<path class="st0" d="M706.51,499.91c-1.39,0.93-2.72,2.47-4.3,2.77c-13.3,2.58-26.66,4.85-39.97,7.39
			c-19.73,3.77-39.58,6.87-58.68,13.58c-11.94,4.19-24.42,6.8-36.45,10.76c-13,4.28-25.76,9.3-38.61,14.03
			c-21.73,7.99-43.48,15.93-65.16,24.08c-4.88,1.83-9.39,4.61-14.23,6.57c-1.76,0.72-3.97,0.34-5.98,0.46
			c1.12-1.37,2.07-2.92,3.38-4.07c5.45-4.76,11.25-9.14,16.47-14.14c9.26-8.89,18.53-17.82,27.15-27.33
			c6.45-7.11,11.74-15.26,17.81-22.74c7.35-9.05,15.11-17.76,22.45-26.82c6.38-7.87,12.41-16.02,18.59-24.05
			c8.05-10.44,16.31-20.72,24.1-31.36c9.59-13.1,18.94-26.39,28.1-39.8c6.48-9.49,13.05-18.99,18.53-29.06
			c6.39-11.71,5.96-12.03,13.59-1.14c10.51,14.99,18.96,31.13,26.92,47.59c8.17,16.91,16.95,33.54,25.4,50.32
			c2.51,4.99,4.75,10.11,7.25,15.11c3.84,7.7,7.81,15.33,11.68,23.01C705.15,496.28,705.57,497.58,706.51,499.91z"/>
		<g>
			<path d="M897.33,492.47c-3.56-0.84-13.9-0.45-24.22,0.22c-13.81,0.09-27.61,0.61-41.42,0.57c-29.82-0.1-59.64-0.76-89.29,3.53
				c-8.27,1.2-15.05-1.07-19.15-9c-1.55-3.01-3.28-5.93-4.93-8.89c-8.57-15.35-17.05-30.76-25.74-46.04
				c-5.44-9.56-11.48-18.78-16.74-28.43c-15.05-27.66-29.73-55.52-44.79-83.17c-4.45-8.16-9.34-16.14-14.72-23.72
				c-4.91-6.92-13-7.74-18.49-2.46c-2.54,2.44-4.8,5.27-6.72,8.23c-5.96,9.16-4.55,14.12,4.94,19.88
				c7.11,4.31,10.34,10.35,9.71,19.11c-0.67,9.37-5.12,16.87-10.24,23.89c-9.04,12.41-17.56,25.65-28.69,35.97
				c-21.64,20.06-47.64,33.41-76.32,40.72c-12.42,3.17-25.19,6.17-37.91,6.69c-26.21,1.07-52.41,1.07-78.41-4.71
				c-27.61-6.14-54.24-13.65-75.47-33.77c-18.51-17.55-30.29-38.34-32.23-64.25c-1.46-19.58,1.73-38.43,10.25-55.89
				c10.97-22.5,28.37-39.99,47.98-55.07c12.32-9.47,25.33-18.12,38.55-26.32c16.24-10.06,32.62-20.06,49.68-28.6
				c15.24-7.63,31.31-13.74,47.34-19.65c22.01-8.12,44.92-13.23,68.12-16.13c30.31-3.79,60.76-4.91,91.31-1.59
				c23.45,2.54,46.89,5.01,69.47,12.12c14.17,4.46,28.12,9.66,42.05,14.85c10.38,3.87,21.98,1.96,28.6-6.84
				c6.56-8.71,7.45-15.94-4.2-18.87c-6.05-1.52-11.92-3.8-17.83-5.85c-20.61-7.18-41.98-10.91-63.61-12.6
				c-29.1-2.28-58.24-1.88-87.36,0.85c-23.14,2.17-46.13,5.28-68.68,10.75c-20.73,5.03-41.43,10.43-61.67,17.09
				c-20.72,6.82-41.41,14.24-61.14,23.48c-22.49,10.53-44.32,22.66-65.66,35.39c-17.97,10.71-35.05,22.91-49.77,38.17
				c-18.2,18.87-33.48,39.88-42.58,64.34c-14.04,37.74-7.53,72.39,20.47,102.1c15.16,16.09,33.16,28.33,53.36,37.29
				c20.32,9.02,41.75,14.63,63.78,15.71c29.07,1.43,58.14,0.95,87-5.15c22.4-4.73,42.53-14.42,62.65-24.41
				c7.68-3.81,14.54-9.25,21.88-13.78c1.02-0.63,2.64-0.31,3.98-0.43c-0.01,1.44,0.43,3.1-0.13,4.29c-1.43,3.03-3.14,5.97-5.05,8.73
				c-9.35,13.49-18.3,27.29-28.35,40.23c-10.06,12.96-20.64,25.65-32.09,37.38c-23.38,23.94-49.26,44.9-78.6,61.29
				c-10.9,6.09-21.8,12.22-32.94,17.87c-21.4,10.84-44.13,18.22-67.09,24.92c-4.23,1.24-6.4,3.5-4.66,7.73
				c2.36,5.75,4.68,11.65,8.06,16.8c3.63,5.53,10.23,7,16.31,4.95c13.91-4.69,26.83-11.33,38.41-20.36
				c19.8-15.44,42.61-24.86,65.93-33.28c22.57-8.16,46.57-11.4,69.02-20.15c7.47-2.91,15.83-3.43,23.65-5.54
				c15.35-4.15,30.44-9.36,45.93-12.82c23.11-5.16,46.39-9.74,69.77-13.55c22.9-3.73,46.02-6.07,69.01-9.23
				c7.99-1.1,13.63,2.67,17.6,8.6c4.31,6.43,8.06,13.38,11.08,20.52c7.47,17.62,15.7,34.81,27.01,50.29
				c8.45,11.56,20.36,17.57,34.62,18.59c1.92,0.14,4.6-0.79,5.7-2.19c0.74-0.94-0.29-3.82-1.23-5.43
				c-4.86-8.34-10.2-16.41-14.85-24.86c-3.8-6.92-6.49-14.45-10.35-21.33c-6.61-11.8-13.83-23.26-20.64-34.95
				c-3.67-6.29-2.17-9.19,5.06-10.48c1.17-0.21,2.35-0.31,3.52-0.49c12.65-1.99,25.31-4,37.96-5.97c1.24-0.19,2.49-0.32,3.74-0.37
				c12.57-0.52,25.14-0.98,37.71-1.53c1.81-0.08,3.67-0.12,5.46-0.4c4.9-0.35,8.6-0.78,9.98-1.31c4.81-1.85,13.7-3.21,17.19-3.7
				c0.48-0.02,0.97-0.08,1.46-0.2c0,0,0,0,0,0l0,0c1.07-0.25,2.17-0.75,3.3-1.5c0.51-0.34,0.53-1.08,0.04-1.44
				c-3.36-2.53-6.74-2.71-10.34-2.09c-7.97,1.36-14.43-2.93-22.7-5.31c5.24-2.37,9.05-4.52,13.13-5.82c0.87-0.28,1.67-0.6,2.43-0.92
				c2.27-0.55,4.02-0.86,4.02-0.86l1.35-0.27c1.32-0.27,2.7-0.35,3.99,0.02c2.84,0.8,6.86-2.31,9.31-3.12
				c0.51-0.17,1.1-0.34,1.72-0.5c3.75-0.39,6.56-0.1,10.03-0.35C900.64,500.42,904.7,494.21,897.33,492.47z M702.21,502.68
				c-13.3,2.58-26.66,4.85-39.97,7.39c-19.73,3.77-39.58,6.87-58.68,13.58c-11.94,4.19-24.42,6.8-36.45,10.76
				c-13,4.28-25.76,9.3-38.61,14.03c-21.73,7.99-43.48,15.93-65.16,24.08c-4.88,1.83-9.39,4.61-14.23,6.57
				c-1.76,0.72-3.97,0.34-5.98,0.46c1.12-1.37,2.07-2.92,3.38-4.07c5.45-4.76,11.25-9.14,16.47-14.14
				c9.26-8.89,18.53-17.82,27.15-27.33c6.45-7.11,11.74-15.26,17.81-22.74c7.35-9.05,15.11-17.76,22.45-26.82
				c6.38-7.87,12.41-16.02,18.59-24.05c8.05-10.44,16.31-20.72,24.1-31.36c9.59-13.1,18.94-26.39,28.1-39.8
				c6.48-9.49,13.05-18.99,18.53-29.06c6.39-11.71,5.96-12.03,13.59-1.14c10.48,14.95,18.92,31.04,26.85,47.46
				c8.07,16.7,16.63,33.16,25.07,49.67c2.67,5.23,5.02,10.63,7.64,15.88c3.84,7.7,7.81,15.33,11.68,23.01
				c0.61,1.2,1.02,2.49,1.96,4.82C705.12,500.83,703.78,502.37,702.21,502.68z"/>
			<path d="M886.45,506.63c-5.24,0.78-10.56,1.37-15.53,3.28c-0.24,0.08-0.45,0.17-0.66,0.25c-0.07,0.03-0.14,0.05-0.21,0.08
				c3.76-0.22,7.41-0.6,11.15-0.64c1.84,0.02,3.71,0.36,5.59,0.18c0.94-0.09,1.85-0.31,2.75-0.54c0.79-0.24,1.68-0.4,2.29-1.01
				C892.77,506.58,887.37,506.5,886.45,506.63z"/>
		</g>
	</g>
</g>
</svg>
